<mxfile host="app.diagrams.net" agent="Mozilla/5.0 (Windows NT 10.0; Win64; x64) AppleWebKit/537.36 (KHTML, like Gecko) Chrome/130.0.0.0 Safari/537.36" version="24.8.3">
  <diagram name="Page-1" id="74e2e168-ea6b-b213-b513-2b3c1d86103e">
    <mxGraphModel dx="3056" dy="1872" grid="1" gridSize="10" guides="1" tooltips="1" connect="1" arrows="1" fold="1" page="1" pageScale="1" pageWidth="1100" pageHeight="850" background="none" math="0" shadow="0">
      <root>
        <mxCell id="0" />
        <mxCell id="1" parent="0" />
        <mxCell id="pPttMajYSx2huKxtnP8c-76" value="" style="group" vertex="1" connectable="0" parent="1">
          <mxGeometry x="-3.5" y="-21" width="1407" height="850" as="geometry" />
        </mxCell>
        <mxCell id="pPttMajYSx2huKxtnP8c-75" value="" style="rounded=0;whiteSpace=wrap;html=1;" vertex="1" parent="pPttMajYSx2huKxtnP8c-76">
          <mxGeometry width="1407" height="850" as="geometry" />
        </mxCell>
        <mxCell id="77e6c97f196da883-1" value="&lt;font style=&quot;font-size: 14px;&quot;&gt;Historias Clínicas&lt;/font&gt;" style="swimlane;html=1;childLayout=stackLayout;startSize=20;rounded=0;shadow=0;labelBackgroundColor=none;strokeWidth=1;fontFamily=Verdana;fontSize=8;align=center;fillColor=#00FF00;" parent="pPttMajYSx2huKxtnP8c-76" vertex="1">
          <mxGeometry x="23.5" y="25" width="1360" height="800" as="geometry" />
        </mxCell>
        <mxCell id="77e6c97f196da883-2" value="&lt;span style=&quot;&quot;&gt;Admisión&lt;/span&gt;" style="swimlane;html=1;startSize=20;fillColor=#00FF00;fontColor=default;labelBackgroundColor=none;" parent="77e6c97f196da883-1" vertex="1">
          <mxGeometry y="20" width="400" height="780" as="geometry" />
        </mxCell>
        <mxCell id="77e6c97f196da883-8" value="&lt;font style=&quot;font-size: 14px;&quot;&gt;Consulta de análisis clínicos&lt;/font&gt;" style="rounded=1;whiteSpace=wrap;html=1;shadow=0;labelBackgroundColor=none;strokeWidth=1;fontFamily=Verdana;fontSize=8;align=center;fillColor=#CCCCFF;" parent="77e6c97f196da883-2" vertex="1">
          <mxGeometry x="96.25" y="36" width="100" height="60" as="geometry" />
        </mxCell>
        <mxCell id="pPttMajYSx2huKxtnP8c-7" style="edgeStyle=orthogonalEdgeStyle;rounded=0;orthogonalLoop=1;jettySize=auto;html=1;" edge="1" parent="77e6c97f196da883-2" source="pPttMajYSx2huKxtnP8c-6" target="77e6c97f196da883-8">
          <mxGeometry relative="1" as="geometry" />
        </mxCell>
        <mxCell id="pPttMajYSx2huKxtnP8c-6" value="" style="ellipse;whiteSpace=wrap;html=1;gradientColor=#24cd18;fillColor=#66CC00;" vertex="1" parent="77e6c97f196da883-2">
          <mxGeometry x="30" y="51" width="30" height="30" as="geometry" />
        </mxCell>
        <mxCell id="pPttMajYSx2huKxtnP8c-8" value="INICIO" style="text;html=1;align=center;verticalAlign=middle;whiteSpace=wrap;rounded=0;" vertex="1" parent="77e6c97f196da883-2">
          <mxGeometry x="17" y="90" width="60" height="15" as="geometry" />
        </mxCell>
        <mxCell id="pPttMajYSx2huKxtnP8c-11" style="edgeStyle=orthogonalEdgeStyle;rounded=0;orthogonalLoop=1;jettySize=auto;html=1;entryX=0;entryY=0.5;entryDx=0;entryDy=0;exitX=1;exitY=0.5;exitDx=0;exitDy=0;" edge="1" parent="77e6c97f196da883-2" source="77e6c97f196da883-13" target="77e6c97f196da883-11">
          <mxGeometry relative="1" as="geometry">
            <Array as="points">
              <mxPoint x="230" y="181" />
              <mxPoint x="230" y="181" />
            </Array>
          </mxGeometry>
        </mxCell>
        <mxCell id="pPttMajYSx2huKxtnP8c-17" value="SI" style="edgeLabel;html=1;align=center;verticalAlign=middle;resizable=0;points=[];" vertex="1" connectable="0" parent="pPttMajYSx2huKxtnP8c-11">
          <mxGeometry x="-0.1884" y="-4" relative="1" as="geometry">
            <mxPoint y="-14" as="offset" />
          </mxGeometry>
        </mxCell>
        <mxCell id="77e6c97f196da883-13" value="&lt;font style=&quot;font-size: 12px;&quot;&gt;¿Es el análisis clínico que busca?&lt;/font&gt;" style="rhombus;whiteSpace=wrap;html=1;rounded=0;shadow=0;labelBackgroundColor=none;strokeWidth=1;fontFamily=Verdana;fontSize=8;align=center;fillColor=#FFFF33;" parent="77e6c97f196da883-2" vertex="1">
          <mxGeometry x="92.5" y="116" width="107.5" height="130" as="geometry" />
        </mxCell>
        <mxCell id="77e6c97f196da883-29" style="edgeStyle=orthogonalEdgeStyle;rounded=1;html=1;labelBackgroundColor=none;startArrow=none;startFill=0;startSize=5;endArrow=classicThin;endFill=1;endSize=5;jettySize=auto;orthogonalLoop=1;strokeWidth=1;fontFamily=Verdana;fontSize=8;exitX=0.5;exitY=1;exitDx=0;exitDy=0;" parent="77e6c97f196da883-2" source="77e6c97f196da883-8" target="77e6c97f196da883-13" edge="1">
          <mxGeometry relative="1" as="geometry" />
        </mxCell>
        <mxCell id="pPttMajYSx2huKxtnP8c-73" style="edgeStyle=orthogonalEdgeStyle;rounded=0;orthogonalLoop=1;jettySize=auto;html=1;entryX=0.5;entryY=0;entryDx=0;entryDy=0;" edge="1" parent="77e6c97f196da883-2" source="77e6c97f196da883-11" target="pPttMajYSx2huKxtnP8c-19">
          <mxGeometry relative="1" as="geometry" />
        </mxCell>
        <mxCell id="77e6c97f196da883-11" value="&lt;font style=&quot;font-size: 14px;&quot;&gt;Registro de datos del paciente&amp;nbsp;&lt;/font&gt;" style="rounded=1;whiteSpace=wrap;html=1;shadow=0;labelBackgroundColor=none;strokeWidth=1;fontFamily=Verdana;fontSize=8;align=center;fillColor=#CCCCFF;" parent="77e6c97f196da883-2" vertex="1">
          <mxGeometry x="260" y="151" width="100" height="60" as="geometry" />
        </mxCell>
        <mxCell id="pPttMajYSx2huKxtnP8c-16" value="FIN" style="text;html=1;align=center;verticalAlign=middle;whiteSpace=wrap;rounded=0;rotation=-90;" vertex="1" parent="77e6c97f196da883-2">
          <mxGeometry x="-3" y="382.5" width="40" height="15" as="geometry" />
        </mxCell>
        <mxCell id="pPttMajYSx2huKxtnP8c-21" style="edgeStyle=orthogonalEdgeStyle;rounded=0;orthogonalLoop=1;jettySize=auto;html=1;exitX=0.5;exitY=1;exitDx=0;exitDy=0;entryX=1;entryY=0.5;entryDx=0;entryDy=0;" edge="1" parent="77e6c97f196da883-2" source="pPttMajYSx2huKxtnP8c-19" target="pPttMajYSx2huKxtnP8c-15">
          <mxGeometry relative="1" as="geometry">
            <mxPoint x="330" y="455" as="targetPoint" />
          </mxGeometry>
        </mxCell>
        <mxCell id="pPttMajYSx2huKxtnP8c-22" value="NO" style="edgeLabel;html=1;align=center;verticalAlign=middle;resizable=0;points=[];" vertex="1" connectable="0" parent="pPttMajYSx2huKxtnP8c-21">
          <mxGeometry x="0.1498" y="-3" relative="1" as="geometry">
            <mxPoint as="offset" />
          </mxGeometry>
        </mxCell>
        <mxCell id="pPttMajYSx2huKxtnP8c-19" value="&lt;font style=&quot;font-size: 12px;&quot;&gt;¿Desea pagar la atención por adelantado?&lt;/font&gt;" style="rhombus;whiteSpace=wrap;html=1;rounded=0;shadow=0;labelBackgroundColor=none;strokeWidth=1;fontFamily=Verdana;fontSize=8;align=center;gradientColor=none;fillColor=#ffff33;" vertex="1" parent="77e6c97f196da883-2">
          <mxGeometry x="245" y="232.5" width="130" height="135" as="geometry" />
        </mxCell>
        <mxCell id="pPttMajYSx2huKxtnP8c-49" style="edgeStyle=orthogonalEdgeStyle;rounded=0;orthogonalLoop=1;jettySize=auto;html=1;entryX=0.5;entryY=1;entryDx=0;entryDy=0;" edge="1" parent="77e6c97f196da883-2" source="pPttMajYSx2huKxtnP8c-45" target="pPttMajYSx2huKxtnP8c-15">
          <mxGeometry relative="1" as="geometry">
            <mxPoint x="60" y="450" as="targetPoint" />
          </mxGeometry>
        </mxCell>
        <mxCell id="pPttMajYSx2huKxtnP8c-45" value="&lt;font style=&quot;font-size: 14px;&quot;&gt;Entrega de resultados clínicos&lt;/font&gt;" style="rounded=1;whiteSpace=wrap;html=1;shadow=0;labelBackgroundColor=none;strokeWidth=1;fontFamily=Verdana;fontSize=8;align=center;fillColor=#CCCCFF;" vertex="1" parent="77e6c97f196da883-2">
          <mxGeometry x="275" y="693.5" width="100" height="75" as="geometry" />
        </mxCell>
        <mxCell id="pPttMajYSx2huKxtnP8c-67" value="" style="edgeStyle=orthogonalEdgeStyle;rounded=0;orthogonalLoop=1;jettySize=auto;html=1;exitX=0;exitY=0.5;exitDx=0;exitDy=0;" edge="1" parent="77e6c97f196da883-2" source="77e6c97f196da883-13" target="pPttMajYSx2huKxtnP8c-15">
          <mxGeometry relative="1" as="geometry">
            <mxPoint x="80" y="439" as="targetPoint" />
            <mxPoint x="113" y="205" as="sourcePoint" />
          </mxGeometry>
        </mxCell>
        <mxCell id="pPttMajYSx2huKxtnP8c-68" value="NO" style="edgeLabel;html=1;align=center;verticalAlign=middle;resizable=0;points=[];" vertex="1" connectable="0" parent="pPttMajYSx2huKxtnP8c-67">
          <mxGeometry x="-0.081" y="-1" relative="1" as="geometry">
            <mxPoint as="offset" />
          </mxGeometry>
        </mxCell>
        <mxCell id="pPttMajYSx2huKxtnP8c-15" value="" style="ellipse;whiteSpace=wrap;html=1;fillColor=#e60510;" vertex="1" parent="77e6c97f196da883-2">
          <mxGeometry x="30" y="375" width="30" height="30" as="geometry" />
        </mxCell>
        <mxCell id="77e6c97f196da883-3" value="Atención" style="swimlane;html=1;startSize=20;fillColor=#00FF00;" parent="77e6c97f196da883-1" vertex="1">
          <mxGeometry x="400" y="20" width="160" height="780" as="geometry" />
        </mxCell>
        <mxCell id="pPttMajYSx2huKxtnP8c-24" value="&lt;font style=&quot;font-size: 14px;&quot;&gt;Registro de datos de la atención&lt;/font&gt;" style="rounded=1;whiteSpace=wrap;html=1;shadow=0;labelBackgroundColor=none;strokeWidth=1;fontFamily=Verdana;fontSize=8;align=center;fillColor=#CCCCFF;" vertex="1" parent="77e6c97f196da883-3">
          <mxGeometry x="30" y="252.5" width="100" height="95" as="geometry" />
        </mxCell>
        <mxCell id="77e6c97f196da883-4" value="Triaje" style="swimlane;html=1;startSize=20;fillColor=#00FF00;" parent="77e6c97f196da883-1" vertex="1">
          <mxGeometry x="560" y="20" width="180" height="780" as="geometry" />
        </mxCell>
        <mxCell id="77e6c97f196da883-12" value="&lt;font style=&quot;font-size: 14px;&quot;&gt;Recolección de datos especializados en triaje&lt;/font&gt;" style="rounded=1;whiteSpace=wrap;html=1;shadow=0;labelBackgroundColor=none;strokeWidth=1;fontFamily=Verdana;fontSize=8;align=center;fillColor=#CCCCFF;" parent="77e6c97f196da883-4" vertex="1">
          <mxGeometry x="25" y="265" width="130" height="70" as="geometry" />
        </mxCell>
        <mxCell id="77e6c97f196da883-5" value="Plan de atención" style="swimlane;html=1;startSize=20;fillColor=#00FF00;" parent="77e6c97f196da883-1" vertex="1">
          <mxGeometry x="740" y="20" width="450" height="780" as="geometry">
            <mxRectangle x="770" y="20" width="40" height="730" as="alternateBounds" />
          </mxGeometry>
        </mxCell>
        <mxCell id="pPttMajYSx2huKxtnP8c-27" value="&lt;font style=&quot;font-size: 14px;&quot;&gt;Entrega de recetario médico&lt;/font&gt;" style="rounded=1;whiteSpace=wrap;html=1;shadow=0;labelBackgroundColor=none;strokeWidth=1;fontFamily=Verdana;fontSize=8;align=center;fillColor=#CCCCFF;" vertex="1" parent="77e6c97f196da883-5">
          <mxGeometry x="280" y="393.5" width="130" height="70" as="geometry" />
        </mxCell>
        <mxCell id="pPttMajYSx2huKxtnP8c-30" value="&lt;span style=&quot;font-size: 12px;&quot;&gt;¿Solicitaron otro análisis clínico?&lt;/span&gt;" style="rhombus;whiteSpace=wrap;html=1;rounded=0;shadow=0;labelBackgroundColor=none;strokeWidth=1;fontFamily=Verdana;fontSize=8;align=center;fillColor=#ffff33;" vertex="1" parent="77e6c97f196da883-5">
          <mxGeometry x="280" y="502.5" width="130" height="105" as="geometry" />
        </mxCell>
        <mxCell id="pPttMajYSx2huKxtnP8c-31" style="edgeStyle=orthogonalEdgeStyle;rounded=0;orthogonalLoop=1;jettySize=auto;html=1;entryX=0.5;entryY=0;entryDx=0;entryDy=0;" edge="1" parent="77e6c97f196da883-5" source="pPttMajYSx2huKxtnP8c-27" target="pPttMajYSx2huKxtnP8c-30">
          <mxGeometry relative="1" as="geometry" />
        </mxCell>
        <mxCell id="pPttMajYSx2huKxtnP8c-54" style="edgeStyle=orthogonalEdgeStyle;rounded=0;orthogonalLoop=1;jettySize=auto;html=1;exitX=0.5;exitY=1;exitDx=0;exitDy=0;entryX=0.5;entryY=0;entryDx=0;entryDy=0;" edge="1" parent="77e6c97f196da883-5" source="pPttMajYSx2huKxtnP8c-34" target="pPttMajYSx2huKxtnP8c-53">
          <mxGeometry relative="1" as="geometry" />
        </mxCell>
        <mxCell id="pPttMajYSx2huKxtnP8c-34" value="&lt;font style=&quot;font-size: 14px;&quot;&gt;Registro de historial clínico&lt;/font&gt;" style="rounded=1;whiteSpace=wrap;html=1;shadow=0;labelBackgroundColor=none;strokeWidth=1;fontFamily=Verdana;fontSize=8;align=center;fillColor=#CCCCFF;" vertex="1" parent="77e6c97f196da883-5">
          <mxGeometry x="40" y="265" width="90" height="70" as="geometry" />
        </mxCell>
        <mxCell id="pPttMajYSx2huKxtnP8c-57" style="edgeStyle=orthogonalEdgeStyle;rounded=0;orthogonalLoop=1;jettySize=auto;html=1;exitX=0.5;exitY=1;exitDx=0;exitDy=0;entryX=0.5;entryY=0;entryDx=0;entryDy=0;" edge="1" parent="77e6c97f196da883-5" source="pPttMajYSx2huKxtnP8c-53" target="pPttMajYSx2huKxtnP8c-55">
          <mxGeometry relative="1" as="geometry" />
        </mxCell>
        <mxCell id="pPttMajYSx2huKxtnP8c-71" value="SI" style="edgeLabel;html=1;align=center;verticalAlign=middle;resizable=0;points=[];" vertex="1" connectable="0" parent="pPttMajYSx2huKxtnP8c-57">
          <mxGeometry x="0.0672" y="1" relative="1" as="geometry">
            <mxPoint x="14" y="-6" as="offset" />
          </mxGeometry>
        </mxCell>
        <mxCell id="pPttMajYSx2huKxtnP8c-64" style="edgeStyle=orthogonalEdgeStyle;rounded=0;orthogonalLoop=1;jettySize=auto;html=1;entryX=0;entryY=0.5;entryDx=0;entryDy=0;" edge="1" parent="77e6c97f196da883-5" source="pPttMajYSx2huKxtnP8c-53" target="pPttMajYSx2huKxtnP8c-27">
          <mxGeometry relative="1" as="geometry" />
        </mxCell>
        <mxCell id="pPttMajYSx2huKxtnP8c-70" value="NO" style="edgeLabel;html=1;align=center;verticalAlign=middle;resizable=0;points=[];" vertex="1" connectable="0" parent="pPttMajYSx2huKxtnP8c-64">
          <mxGeometry x="0.1125" y="-4" relative="1" as="geometry">
            <mxPoint x="-10" y="-16" as="offset" />
          </mxGeometry>
        </mxCell>
        <mxCell id="pPttMajYSx2huKxtnP8c-53" value="&lt;span style=&quot;font-size: 12px;&quot;&gt;¿El paciente es alérgico?&lt;/span&gt;" style="rhombus;whiteSpace=wrap;html=1;rounded=0;shadow=0;labelBackgroundColor=none;strokeWidth=1;fontFamily=Verdana;fontSize=8;align=center;fillColor=#ffff33;" vertex="1" parent="77e6c97f196da883-5">
          <mxGeometry x="25" y="376" width="120" height="105" as="geometry" />
        </mxCell>
        <mxCell id="pPttMajYSx2huKxtnP8c-65" style="edgeStyle=orthogonalEdgeStyle;rounded=0;orthogonalLoop=1;jettySize=auto;html=1;entryX=0;entryY=0.5;entryDx=0;entryDy=0;" edge="1" parent="77e6c97f196da883-5" source="pPttMajYSx2huKxtnP8c-55" target="pPttMajYSx2huKxtnP8c-30">
          <mxGeometry relative="1" as="geometry" />
        </mxCell>
        <mxCell id="pPttMajYSx2huKxtnP8c-55" value="&lt;font style=&quot;font-size: 14px;&quot;&gt;Entrega de receta especial&lt;/font&gt;" style="rounded=1;whiteSpace=wrap;html=1;shadow=0;labelBackgroundColor=none;strokeWidth=1;fontFamily=Verdana;fontSize=8;align=center;fillColor=#CCCCFF;" vertex="1" parent="77e6c97f196da883-5">
          <mxGeometry x="35" y="520" width="100" height="70" as="geometry" />
        </mxCell>
        <mxCell id="77e6c97f196da883-6" value="Laboratorio" style="swimlane;html=1;startSize=20;fillColor=#00FF00;" parent="77e6c97f196da883-1" vertex="1">
          <mxGeometry x="1190" y="20" width="170" height="780" as="geometry" />
        </mxCell>
        <mxCell id="pPttMajYSx2huKxtnP8c-33" value="&lt;font style=&quot;font-size: 14px;&quot;&gt;Obteneción de pruebas del paciente&lt;/font&gt;" style="rounded=1;whiteSpace=wrap;html=1;shadow=0;labelBackgroundColor=none;strokeWidth=1;fontFamily=Verdana;fontSize=8;align=center;fillColor=#CCCCFF;" vertex="1" parent="77e6c97f196da883-6">
          <mxGeometry x="25" y="520" width="130" height="70" as="geometry" />
        </mxCell>
        <mxCell id="pPttMajYSx2huKxtnP8c-48" style="edgeStyle=orthogonalEdgeStyle;rounded=0;orthogonalLoop=1;jettySize=auto;html=1;" edge="1" parent="77e6c97f196da883-6" source="pPttMajYSx2huKxtnP8c-40" target="pPttMajYSx2huKxtnP8c-46">
          <mxGeometry relative="1" as="geometry" />
        </mxCell>
        <mxCell id="pPttMajYSx2huKxtnP8c-40" value="&lt;span style=&quot;font-size: 14px;&quot;&gt;Enviar pruebas al laboratorio&amp;nbsp;&lt;/span&gt;" style="rounded=1;whiteSpace=wrap;html=1;shadow=0;labelBackgroundColor=none;strokeWidth=1;fontFamily=Verdana;fontSize=8;align=center;fillColor=#CCCCFF;" vertex="1" parent="77e6c97f196da883-6">
          <mxGeometry x="25" y="607.5" width="130" height="70" as="geometry" />
        </mxCell>
        <mxCell id="pPttMajYSx2huKxtnP8c-41" style="edgeStyle=orthogonalEdgeStyle;rounded=0;orthogonalLoop=1;jettySize=auto;html=1;exitX=0.5;exitY=1;exitDx=0;exitDy=0;entryX=0.5;entryY=0;entryDx=0;entryDy=0;" edge="1" parent="77e6c97f196da883-6" source="pPttMajYSx2huKxtnP8c-33" target="pPttMajYSx2huKxtnP8c-40">
          <mxGeometry relative="1" as="geometry" />
        </mxCell>
        <mxCell id="pPttMajYSx2huKxtnP8c-46" value="&lt;span style=&quot;font-size: 14px;&quot;&gt;Impresión de análisis clínicos&amp;nbsp;&lt;/span&gt;" style="rounded=1;whiteSpace=wrap;html=1;shadow=0;labelBackgroundColor=none;strokeWidth=1;fontFamily=Verdana;fontSize=8;align=center;fillColor=#CCCCFF;" vertex="1" parent="77e6c97f196da883-6">
          <mxGeometry x="25" y="696" width="130" height="70" as="geometry" />
        </mxCell>
        <mxCell id="pPttMajYSx2huKxtnP8c-23" style="edgeStyle=orthogonalEdgeStyle;rounded=0;orthogonalLoop=1;jettySize=auto;html=1;" edge="1" parent="77e6c97f196da883-1" source="pPttMajYSx2huKxtnP8c-19" target="pPttMajYSx2huKxtnP8c-24">
          <mxGeometry relative="1" as="geometry">
            <mxPoint x="500" y="340" as="targetPoint" />
          </mxGeometry>
        </mxCell>
        <mxCell id="pPttMajYSx2huKxtnP8c-25" value="SI" style="edgeLabel;html=1;align=center;verticalAlign=middle;resizable=0;points=[];" vertex="1" connectable="0" parent="pPttMajYSx2huKxtnP8c-23">
          <mxGeometry x="-0.7043" relative="1" as="geometry">
            <mxPoint as="offset" />
          </mxGeometry>
        </mxCell>
        <mxCell id="pPttMajYSx2huKxtnP8c-26" style="edgeStyle=orthogonalEdgeStyle;rounded=0;orthogonalLoop=1;jettySize=auto;html=1;exitX=1;exitY=0.5;exitDx=0;exitDy=0;" edge="1" parent="77e6c97f196da883-1" source="pPttMajYSx2huKxtnP8c-24" target="77e6c97f196da883-12">
          <mxGeometry relative="1" as="geometry" />
        </mxCell>
        <mxCell id="pPttMajYSx2huKxtnP8c-35" style="edgeStyle=orthogonalEdgeStyle;rounded=0;orthogonalLoop=1;jettySize=auto;html=1;entryX=0;entryY=0.5;entryDx=0;entryDy=0;" edge="1" parent="77e6c97f196da883-1" source="77e6c97f196da883-12" target="pPttMajYSx2huKxtnP8c-34">
          <mxGeometry relative="1" as="geometry" />
        </mxCell>
        <mxCell id="pPttMajYSx2huKxtnP8c-38" style="edgeStyle=orthogonalEdgeStyle;rounded=0;orthogonalLoop=1;jettySize=auto;html=1;entryX=0;entryY=0.5;entryDx=0;entryDy=0;" edge="1" parent="77e6c97f196da883-1" source="pPttMajYSx2huKxtnP8c-30" target="pPttMajYSx2huKxtnP8c-33">
          <mxGeometry relative="1" as="geometry" />
        </mxCell>
        <mxCell id="pPttMajYSx2huKxtnP8c-42" value="SI" style="edgeLabel;html=1;align=center;verticalAlign=middle;resizable=0;points=[];" vertex="1" connectable="0" parent="pPttMajYSx2huKxtnP8c-38">
          <mxGeometry x="-0.1185" relative="1" as="geometry">
            <mxPoint as="offset" />
          </mxGeometry>
        </mxCell>
        <mxCell id="pPttMajYSx2huKxtnP8c-39" style="edgeStyle=orthogonalEdgeStyle;rounded=0;orthogonalLoop=1;jettySize=auto;html=1;entryX=0;entryY=0.5;entryDx=0;entryDy=0;exitX=0.5;exitY=1;exitDx=0;exitDy=0;" edge="1" parent="77e6c97f196da883-1" source="pPttMajYSx2huKxtnP8c-30" target="pPttMajYSx2huKxtnP8c-40">
          <mxGeometry relative="1" as="geometry">
            <mxPoint x="1130" y="665" as="targetPoint" />
          </mxGeometry>
        </mxCell>
        <mxCell id="pPttMajYSx2huKxtnP8c-43" value="NO" style="edgeLabel;html=1;align=center;verticalAlign=middle;resizable=0;points=[];" vertex="1" connectable="0" parent="pPttMajYSx2huKxtnP8c-39">
          <mxGeometry x="0.2608" y="2" relative="1" as="geometry">
            <mxPoint as="offset" />
          </mxGeometry>
        </mxCell>
        <mxCell id="pPttMajYSx2huKxtnP8c-44" style="edgeStyle=orthogonalEdgeStyle;rounded=0;orthogonalLoop=1;jettySize=auto;html=1;entryX=1;entryY=0.5;entryDx=0;entryDy=0;exitX=0;exitY=0.5;exitDx=0;exitDy=0;" edge="1" parent="77e6c97f196da883-1" source="pPttMajYSx2huKxtnP8c-46" target="pPttMajYSx2huKxtnP8c-45">
          <mxGeometry relative="1" as="geometry">
            <mxPoint x="316.36363636363615" y="720" as="targetPoint" />
            <mxPoint x="1140" y="708" as="sourcePoint" />
          </mxGeometry>
        </mxCell>
      </root>
    </mxGraphModel>
  </diagram>
</mxfile>
